PathFileType	4	(X/Y/Z)	C:/Users/beibeiliu/ov580/test_trc\sequence.5_training_dense_left.trc
DataRate	CameraRate	NumFrames	NumMarkers	Units	OrigDataRate	OrigDataStartFrame	OrigNumFrames
120	120	15	19	mm	120	127	336
Frame#	Time	ThumbCMC			ThumbMCP			ThumbIP			ThumbTip			IndexMCP			IndexPIP			IndexTip			MiddleMCP			MiddlePIP			MiddleTip			RingMCP			RingPIP			RingTip			PinkyMCP			PinkyPIP			PinkyTip			BackHand1			BackHand2			BackHand3	
		X0	Y0	Z0	X1	Y1	Z1	X2	Y2	Z2	X3	Y3	Z3	X4	Y4	Z4	X5	Y5	Z5	X6	Y6	Z6	X7	Y7	Z7	X8	Y8	Z8	X9	Y9	Z9	X10	Y10	Z10	X11	Y11	Z11	X12	Y12	Z12	X13	Y13	Z13	X14	Y14	Z14	X15	Y15	Z15	X16	Y16	Z16	X17	Y17	Z17	X18	Y18	Z18	
126	1.05	-122.148	-74.2619	32.7814	-141.453	-89.2621	19.0928	-157.532	-97.5904	-3.85803	-172.033	-91.7942	-19.7985	-132.363	-86.0932	-33.2408	-151.324	-94.9854	-42.3173	-179.784	-100.62	-43.456	-146.294	-66.9578	-32.0534	-172.332	-79.4266	-21.7836	-164.864	-71.7334	9.93993	-162.543	-53.7925	-25.3047	-172.991	-62.3833	-3.99778	-157.371	-57.0748	16.9596	-163.051	-34.763	-19.1888	-172.799	-51.207	-3.01088	-154.136	-47.9548	17.0899	-118.14	-31.0364	-5.37958	-112.161	-22.5801	25.8282	-104.643	-48.5038	13.2456	
127	1.05833	-120.307	-75.2415	33.1726	-142.592	-94.2358	18.9083	-155.533	-94.5991	-2.4604	-172.473	-91.1303	-24.2435	-131.495	-83.8663	-32.8668	-149.663	-94.2024	-41.9219	-178.173	-100.343	-44.2365	-146.805	-72.5524	-32.9226	-171.519	-77.13	-19.4607	-161.851	-68.7599	10.9538	-157.749	-54.6338	-25.4738	-172.199	-60.659	-5.57162	-152.071	-58.3844	17.6587	-160.625	-35.135	-19.2711	-172.993	-47.0988	-0.568721	-151.641	-48.8788	17.1309	-114.875	-32.0886	0.303913	-108.058	-25.0021	21.9719	-103.336	-49.7559	13.2425	
128	1.06667	-120.161	-75.0583	34.0216	-141.935	-93.0481	18.2211	-155.432	-94.46	-4.04005	-170.202	-90.5817	-20.485	-126.13	-81.7636	-31.3294	-146.627	-91.9129	-46.1797	-166.842	-101.503	-49.6826	-146.32	-69.186	-33.1558	-170.859	-76.9071	-20.523	-161.662	-66.7495	9.02993	-157.175	-53.3454	-25.7601	-170.83	-60.3123	-7.02235	-151.286	-56.5518	17.3956	-154.583	-35.8425	-19.0124	-170.049	-46.7511	0.598485	-146.955	-49.1078	17.1528	-114.317	-32.5238	-1.34153	-106.092	-23.9998	25.7779	-100.248	-52.3413	18.7126	
129	1.075	-120.235	-76.5081	34.1637	-141.998	-91.3623	17.1198	-155.307	-93.6485	-6.83193	-167.032	-87.8479	-19.5573	-120.28	-83.4302	-30.0782	-138.849	-91.1148	-51.838	-155.784	-98.1068	-61.2228	-142.518	-64.8928	-32.6552	-168.915	-74.5247	-20.6074	-161.057	-67.0455	9.27824	-154.406	-51.1933	-24.6563	-169.728	-58.322	-4.99491	-151.542	-55.2692	17.2746	-154.864	-33.4813	-18.7201	-166.854	-47.8303	0.0927615	-146.157	-49.8366	19.0174	-111.27	-32.7269	0.51092	-103.741	-27.4091	27.0724	-100.264	-55.7158	18.0045	
130	1.08333	-119.778	-77.1411	31.0815	-141.314	-93.4204	12.9284	-155.853	-93.6182	-6.95494	-169.476	-87.6048	-23.7649	-116.081	-81.4837	-31.2033	-127.629	-84.0116	-55.4783	-143.427	-89.4567	-74.0595	-140.929	-67.4957	-33.5404	-167.97	-72.8964	-23.9111	-161.154	-68.4224	6.82907	-149.558	-47.5073	-25.5207	-166.304	-61.4011	-3.31309	-147.819	-55.9887	17.9411	-153.72	-36.0182	-17.4705	-164.572	-47.2517	-0.545715	-146.011	-47.5449	18.5452	-110.044	-31.8459	-2.81702	-105.492	-27.2437	26.9773	-99.0869	-54.4324	20.2514	
131	1.09167	-120.066	-75.224	30.9367	-141.703	-90.6913	12.481	-155.905	-93.096	-5.92086	-170.092	-83.5843	-23.6219	-115.345	-76.7765	-35.9367	-120.9	-78.5842	-54.955	-130.698	-78.0571	-76.6872	-142.147	-64.4592	-36.6613	-168.216	-70.6461	-24.7844	-159.137	-65.0689	7.15875	-151.3	-47.0196	-25.1908	-168.43	-55.7967	-4.42741	-151.672	-52.5764	16.7575	-151.089	-35.0444	-17.8404	-164.49	-43.6145	0.586493	-144.484	-45.1396	20.9799	-110.527	-29.2475	-0.187395	-101.973	-28.8076	26.5988	-99.3161	-52.908	18.8959	
132	1.1	-119.248	-76.2265	26.7736	-143.424	-92.394	9.17379	-156.51	-91.3803	-10.9925	-170.707	-83.3232	-24.9876	-115.293	-71.0021	-36.893	-119.672	-69.6325	-58.9649	-123.59	-71.1921	-79.4899	-143.548	-61.566	-38.3233	-169.102	-65.5757	-25.9664	-158.273	-63.7898	6.36362	-151.349	-48.701	-26.9395	-167.546	-54.1117	-4.82138	-150.176	-55.3305	15.151	-151.193	-32.6935	-18.3999	-163.391	-43.492	0.689276	-143.893	-43.6979	17.9336	-111.083	-31.9606	-2.76045	-101.431	-28.4257	29.083	-98.0989	-55.7929	11.7807	
133	1.10833	-119.065	-79.068	24.0399	-141.688	-91.3108	9.12908	-155.91	-87.9314	-11.627	-172.047	-78.923	-31.1767	-113.807	-69.518	-37.962	-119.298	-65.0811	-59.8665	-120.966	-63.9296	-83.3687	-142.178	-57.051	-39.0647	-167.908	-66.6901	-28.6428	-160.944	-62.0608	2.79338	-149.619	-38.8434	-27.9358	-166.438	-53.0369	-9.72523	-147.834	-53.563	13.6766	-152.432	-26.0166	-18.3905	-165.543	-38.2453	-0.801011	-146.72	-44.9152	14.6241	-107.37	-28.946	0.0257787	-100.549	-27.1717	26.7121	-97.6099	-52.0105	13.0546	
134	1.11667	-119.196	-75.5709	24.4763	-141.404	-85.5916	2.25805	-154.998	-84.1525	-16.3527	-169.778	-75.8499	-31.4992	-113.435	-65.01	-40.09	-116.921	-64.9398	-65.7315	-119.905	-57.0546	-82.5994	-140.959	-56.3481	-41.4117	-168.042	-61.0531	-33.3174	-158.531	-65.3446	0.24588	-149.876	-37.2842	-29.3116	-166.234	-51.4701	-10.1416	-147.322	-49.7632	13.2971	-154.902	-25.0244	-20.0859	-162.77	-40.9972	-2.08053	-143.529	-45.6627	13.2895	-110.228	-27.6851	-4.99448	-99.1323	-28.4708	21.1087	-96.3997	-53.1832	8.8831	
135	1.125	-118.138	-74.5891	24.3983	-141.475	-85.7869	3.683	-155.882	-81.96	-19.0455	-171.438	-75.08	-35.277	-113.65	-61.7022	-45.8602	-117.215	-56.3693	-66.5226	-118.209	-50.9964	-86.4197	-140.185	-52.4749	-42.6066	-166.473	-59.8637	-35.4018	-158.2	-58.383	0.442954	-149.751	-39.9598	-30.5985	-166.529	-47.1742	-8.90595	-146.859	-50.671	10.6964	-147.929	-22.3507	-20.1816	-162.601	-36.9315	-1.97026	-144.571	-42.7905	14.6909	-107.238	-27.3682	-4.219	-101.258	-22.7965	19.9993	-96.9388	-51.6677	8.62207	
136	1.13333	-119.402	-70.26	18.024	-142.354	-82.5647	-1.29224	-156.135	-81.914	-17.5624	-171.041	-70.9922	-37.1835	-112.986	-60.4581	-47.2102	-115.989	-54.28	-66.3148	-117.874	-49.3281	-85.7747	-140.109	-50.1245	-44.2772	-167.247	-57.1933	-34.2723	-158.119	-60.6546	-2.30627	-147.515	-33.5594	-30.4877	-165.178	-43.8448	-14.6395	-146.912	-46.2425	11.1344	-151.924	-21.3641	-20.8276	-162.728	-31.3032	-2.39909	-140.6	-40.4489	15.0763	-106.276	-26.8557	-2.5652	-99.1093	-22.3653	20.9445	-96.9787	-48.532	7.17893	
137	1.14167	-118.673	-69.3691	17.6273	-142.67	-81.8039	1.12862	-156.519	-75.3401	-20.3727	-170.45	-64.514	-36.0737	-112.424	-60.3582	-43.7442	-117.124	-58.1593	-69.2628	-121.828	-53.6888	-90.3819	-137.024	-47.8648	-42.1763	-167.818	-54.4711	-33.7887	-159.804	-53.7602	-1.82008	-146.045	-29.0685	-30.9959	-165.69	-38.4896	-13.2843	-146.203	-45.9375	10.1221	-148.926	-19.2131	-20.948	-160.562	-30.2614	-2.23082	-144.791	-38.9405	13.0461	-104.497	-24.9163	-3.96589	-99.209	-23.2443	22.4548	-95.4434	-50.9644	6.50803	
138	1.15	-120.323	-69.2336	20.5709	-144.538	-78.2542	1.71615	-161.087	-74.5368	-22.3444	-174.055	-62.073	-34.9466	-115.589	-59.7577	-47.3027	-124.473	-54.101	-71.0073	-137.421	-53.3805	-92.3051	-141.956	-44.2743	-44.612	-168.676	-50.2376	-31.833	-160.713	-51.9004	-1.59382	-144.931	-29.0559	-31.8522	-164.999	-39.012	-13.7304	-150.5	-40.245	10.0203	-148.309	-19.8151	-21.5624	-160.441	-28.1371	-2.0131	-144.741	-37.2537	12.1913	-103.959	-22.6143	-8.71138	-97.143	-24.7836	23.4719	-96.7618	-52.0815	4.32005	
139	1.15833	-123.403	-72.4433	17.8203	-149.151	-77.9888	-0.369889	-163.119	-69.8484	-19.4643	-173.786	-57.9776	-30.8247	-123.251	-63.5315	-49.4087	-138.956	-59.1117	-70.9954	-156.553	-54.1386	-82.199	-145.889	-41.7537	-44.8217	-170.145	-45.6376	-33.8698	-162.612	-50.1547	-1.78921	-148.552	-27.8317	-31.1454	-166.204	-34.8616	-9.90831	-148.124	-41.9628	9.78466	-143.752	-13.9529	-22.2391	-160.536	-23.4544	-4.85079	-141.463	-32.7424	12.6206	-103.794	-26.1438	-5.18604	-95.5328	-25.3994	16.2396	-98.0975	-50.6766	6.25245	
140	1.16667	-124.381	-69.8675	16.7276	-151.877	-76.7349	2.4375	-167.34	-69.1209	-17.4626	-179.97	-53.1112	-32.6197	-132.782	-60.9279	-48.8549	-154.225	-57.5936	-66.119	-176.159	-54.0174	-70.8277	-145.09	-44.1567	-42.7298	-172.569	-41.9753	-30.9224	-159.735	-47.5746	0.42583	-148.939	-28.2318	-33.0718	-167.181	-35.2172	-10.1938	-149.063	-41.2332	8.4739	-146.498	-13.2975	-23.0204	-160.604	-22.1427	-5.38417	-144.767	-34.2001	7.9245	-104.998	-26.9042	-8.57983	-95.3003	-27.4433	19.2849	-98.5112	-55.6855	1.36107	
